<svg xmlns="http://www.w3.org/2000/svg" xmlns:xlink="http://www.w3.org/1999/xlink" width="1625" zoomAndPan="magnify" viewBox="0 0 1218.75 764.999999" height="1020" preserveAspectRatio="xMidYMid meet" version="1.0"><defs><g/><clipPath id="0ef4b5d17c"><path d="M 0 0.078125 L 1218.5 0.078125 L 1218.5 764.921875 L 0 764.921875 Z M 0 0.078125 " clip-rule="nonzero"/></clipPath><clipPath id="ea28419918"><path d="M 0.226562 43 L 164.894531 43 L 164.894531 188 L 0.226562 188 Z M 0.226562 43 " clip-rule="nonzero"/></clipPath><clipPath id="6608f440e7"><path d="M 133 61 L 164.894531 61 L 164.894531 149 L 133 149 Z M 133 61 " clip-rule="nonzero"/></clipPath><clipPath id="24dac6ed97"><path d="M 0.226562 61 L 84 61 L 84 188 L 0.226562 188 Z M 0.226562 61 " clip-rule="nonzero"/></clipPath><clipPath id="7ee07f3545"><path d="M 191.109375 51 L 192 51 L 192 182 L 191.109375 182 Z M 191.109375 51 " clip-rule="nonzero"/></clipPath><clipPath id="336b72a219"><rect x="0" width="539" y="0" height="232"/></clipPath></defs><g clip-path="url(#0ef4b5d17c)"><path fill="#ffffff" d="M 0 0.078125 L 1218.5 0.078125 L 1218.5 764.921875 L 0 764.921875 Z M 0 0.078125 " fill-opacity="1" fill-rule="nonzero"/><path fill="#ffffff" d="M 0 0.078125 L 1218.5 0.078125 L 1218.5 764.921875 L 0 764.921875 Z M 0 0.078125 " fill-opacity="1" fill-rule="nonzero"/></g><g transform="matrix(1, 0, 0, 1, 336, 266)"><g clip-path="url(#336b72a219)"><g clip-path="url(#ea28419918)"><path fill="#0f4e9f" d="M 14.085938 59.761719 C 21.550781 55.523438 29.027344 51.175781 36.476562 47.054688 C 43.746094 43.039062 46.875 43.390625 53.867188 47.457031 C 60.003906 51.027344 66.140625 54.59375 72.277344 58.164062 C 82.03125 63.839844 86.285156 63.035156 95.78125 57.472656 C 101.929688 53.871094 108.082031 50.273438 114.230469 46.671875 C 120.96875 42.726562 124.113281 42.828125 130.777344 46.824219 C 137.652344 50.945312 144.527344 55.0625 151.410156 59.179688 C 160.589844 64.679688 165.457031 66.375 165.433594 77.691406 C 165.371094 101.144531 165.433594 124.597656 165.433594 148.050781 C 154.839844 141.988281 144.238281 135.929688 133.644531 129.867188 C 133.597656 111.132812 133.550781 92.398438 133.507812 73.664062 C 121.492188 79.976562 109.46875 86.289062 97.453125 92.601562 C 86.285156 98.46875 80.90625 98.386719 69.628906 92.371094 C 57.660156 85.992188 45.683594 79.601562 33.707031 73.222656 C 33.566406 89.058594 33.417969 104.902344 33.273438 120.738281 C 33.191406 129.484375 35.46875 133.160156 43.0625 137.339844 C 56.589844 144.792969 70.113281 152.25 83.640625 159.699219 C 83.710938 153.320312 81.636719 145.257812 75.785156 141.835938 C 67.980469 137.257812 60.179688 132.679688 52.375 128.101562 C 62.8125 121.898438 73.246094 115.683594 83.683594 109.480469 C 89.425781 112.628906 95.171875 115.78125 100.914062 118.921875 C 113.640625 125.898438 114.628906 127.1875 115.136719 141.675781 C 115.292969 146.117188 115.382812 150.496094 115.464844 154.863281 C 115.597656 162.117188 116.351562 164.605469 110.308594 168.042969 C 103.015625 172.203125 95.652344 176.234375 88.300781 180.292969 C 74.632812 187.835938 73.21875 190.605469 58.105469 181.753906 C 42.261719 172.472656 26.414062 163.203125 10.570312 153.921875 C 1.40625 148.570312 0.234375 145.277344 0.234375 134.710938 C 0.234375 116.011719 0.234375 97.308594 0.234375 78.601562 C 0.234375 67.121094 4.769531 65.054688 14.085938 59.761719 " fill-opacity="1" fill-rule="evenodd"/></g><g clip-path="url(#6608f440e7)"><path fill="#000000" d="M 155.386719 61.53125 C 161.992188 65.445312 165.453125 68.148438 165.433594 77.699219 C 165.371094 101.148438 165.433594 124.605469 165.433594 148.054688 C 154.839844 141.992188 144.238281 135.9375 133.644531 129.875 C 133.597656 111.140625 133.550781 92.40625 133.507812 73.667969 C 140.390625 68.804688 147.53125 64.457031 155.386719 61.53125 Z M 155.386719 61.53125 " fill-opacity="1" fill-rule="evenodd"/></g><g clip-path="url(#24dac6ed97)"><path fill="#000000" d="M 33.707031 73.230469 C 33.566406 89.066406 33.417969 104.910156 33.273438 120.746094 C 33.191406 129.488281 35.46875 133.167969 43.0625 137.347656 C 56.589844 144.796875 70.113281 152.253906 83.640625 159.707031 L 83.640625 159.578125 L 83.507812 183.007812 C 74.035156 188.371094 71.238281 189.457031 58.113281 181.769531 C 42.269531 172.488281 26.417969 163.214844 10.574219 153.933594 C 1.40625 148.570312 0.234375 145.277344 0.234375 134.710938 C 0.234375 116.011719 0.234375 97.308594 0.234375 78.601562 C 0.234375 68.730469 3.585938 65.820312 10.441406 61.835938 C 18.824219 64.816406 26.269531 68.914062 33.707031 73.230469 " fill-opacity="1" fill-rule="evenodd"/></g><g clip-path="url(#7ee07f3545)"><path fill="#000000" d="M 191.785156 51.375 L 191.785156 181.550781 L 191.109375 116.25 Z M 191.785156 51.375 " fill-opacity="1" fill-rule="nonzero"/></g><g fill="#000000" fill-opacity="1"><g transform="translate(236.576139, 103.179866)"><g><path d="M 23.425781 -24.9375 C 21.015625 -26.734375 18.351562 -27.597656 15.328125 -27.597656 C 7.554688 -27.597656 1.1875 -21.230469 1.1875 -13.457031 C 1.1875 -5.757812 7.664062 0.46875 15.328125 0.46875 C 18.207031 0.46875 21.085938 -0.503906 23.425781 -2.195312 L 23.425781 -5.9375 C 21.265625 -3.777344 18.28125 -2.339844 15.222656 -2.339844 C 9.140625 -2.339844 4.210938 -7.59375 4.210938 -13.566406 C 4.210938 -19.539062 9.105469 -24.792969 15.148438 -24.792969 C 18.28125 -24.792969 21.265625 -23.425781 23.425781 -21.195312 Z M 23.425781 -24.9375 "/></g></g></g><g fill="#000000" fill-opacity="1"><g transform="translate(262.372663, 103.179866)"><g><path d="M 15.507812 -27.597656 C 7.773438 -27.597656 1.367188 -21.300781 1.367188 -13.53125 C 1.367188 -5.722656 7.773438 0.46875 15.507812 0.46875 C 23.246094 0.46875 29.652344 -5.722656 29.652344 -13.53125 C 29.652344 -21.300781 23.246094 -27.597656 15.507812 -27.597656 Z M 15.507812 -24.792969 C 21.734375 -24.792969 26.628906 -19.71875 26.628906 -13.566406 C 26.628906 -7.449219 21.664062 -2.339844 15.507812 -2.339844 C 9.355469 -2.339844 4.390625 -7.449219 4.390625 -13.566406 C 4.390625 -19.71875 9.285156 -24.792969 15.507812 -24.792969 Z M 15.507812 -24.792969 "/></g></g></g><g fill="#000000" fill-opacity="1"><g transform="translate(293.38606, 103.179866)"><g><path d="M 2.914062 0 L 5.9375 0 L 5.9375 -20.90625 L 27.09375 1.222656 L 27.09375 -27.132812 L 24.074219 -27.132812 L 24.074219 -6.117188 L 2.914062 -28.28125 Z M 2.914062 0 "/></g></g></g><g fill="#000000" fill-opacity="1"><g transform="translate(323.392067, 103.179866)"><g><path d="M 17.453125 -23.390625 C 16.011719 -26.050781 13.457031 -27.597656 10.433594 -27.597656 C 6.40625 -27.597656 2.84375 -24.902344 2.84375 -20.691406 C 2.84375 -16.804688 5.578125 -15.183594 8.742188 -13.746094 L 10.398438 -13.027344 C 12.917969 -11.875 15.402344 -10.796875 15.402344 -7.628906 C 15.402344 -4.570312 12.738281 -2.339844 9.824219 -2.339844 C 6.910156 -2.339844 4.785156 -4.605469 4.390625 -7.375 L 1.4375 -6.550781 C 2.304688 -2.339844 5.542969 0.46875 9.894531 0.46875 C 14.609375 0.46875 18.421875 -3.167969 18.421875 -7.917969 C 18.421875 -12.234375 15.4375 -13.996094 11.910156 -15.546875 L 10.113281 -16.335938 C 8.277344 -17.164062 5.867188 -18.242188 5.867188 -20.582031 C 5.867188 -23.066406 7.953125 -24.792969 10.363281 -24.792969 C 12.667969 -24.792969 13.960938 -23.714844 15.042969 -21.84375 Z M 17.453125 -23.390625 "/></g></g></g><g fill="#000000" fill-opacity="1"><g transform="translate(343.504003, 103.179866)"><g><path d="M 9.929688 -24.324219 L 16.550781 -24.324219 L 16.550781 -27.132812 L 0.359375 -27.132812 L 0.359375 -24.324219 L 6.910156 -24.324219 L 6.910156 0 L 9.929688 0 Z M 9.929688 -24.324219 "/></g></g></g><g fill="#000000" fill-opacity="1"><g transform="translate(360.413869, 103.179866)"><g><path d="M 5.757812 -24.324219 L 6.65625 -24.324219 C 10.292969 -24.324219 13.566406 -23.894531 13.566406 -19.429688 C 13.566406 -15.222656 10.113281 -14.574219 6.691406 -14.574219 L 5.757812 -14.574219 Z M 5.757812 -11.910156 L 6.511719 -11.910156 L 14.71875 0 L 18.421875 0 L 9.789062 -12.164062 C 13.960938 -12.523438 16.589844 -15.472656 16.589844 -19.648438 C 16.589844 -25.765625 11.800781 -27.132812 6.65625 -27.132812 L 2.734375 -27.132812 L 2.734375 0 L 5.757812 0 Z M 5.757812 -11.910156 "/></g></g></g><g fill="#000000" fill-opacity="1"><g transform="translate(379.914172, 103.179866)"><g><path d="M 5.683594 -27.132812 L 2.664062 -27.132812 L 2.664062 -10.148438 C 2.664062 -7.054688 2.949219 -4.570312 5.324219 -2.304688 C 7.160156 -0.503906 9.789062 0.46875 12.34375 0.46875 C 15.078125 0.46875 17.777344 -0.613281 19.648438 -2.625 C 21.804688 -4.859375 22.023438 -7.195312 22.023438 -10.148438 L 22.023438 -27.132812 L 19 -27.132812 L 19 -10.976562 C 19 -8.851562 19.105469 -6.476562 17.667969 -4.75 C 16.410156 -3.238281 14.285156 -2.339844 12.34375 -2.339844 C 10.363281 -2.339844 8.058594 -3.273438 6.871094 -4.929688 C 5.613281 -6.65625 5.683594 -8.960938 5.683594 -10.976562 Z M 5.683594 -27.132812 "/></g></g></g><g fill="#000000" fill-opacity="1"><g transform="translate(404.559386, 103.179866)"><g><path d="M 9.929688 -24.324219 L 16.550781 -24.324219 L 16.550781 -27.132812 L 0.359375 -27.132812 L 0.359375 -24.324219 L 6.910156 -24.324219 L 6.910156 0 L 9.929688 0 Z M 9.929688 -24.324219 "/></g></g></g><g fill="#000000" fill-opacity="1"><g transform="translate(421.469252, 103.179866)"><g><path d="M 15.507812 -27.597656 C 7.773438 -27.597656 1.367188 -21.300781 1.367188 -13.53125 C 1.367188 -5.722656 7.773438 0.46875 15.507812 0.46875 C 23.246094 0.46875 29.652344 -5.722656 29.652344 -13.53125 C 29.652344 -21.300781 23.246094 -27.597656 15.507812 -27.597656 Z M 15.507812 -24.792969 C 21.734375 -24.792969 26.628906 -19.71875 26.628906 -13.566406 C 26.628906 -7.449219 21.664062 -2.339844 15.507812 -2.339844 C 9.355469 -2.339844 4.390625 -7.449219 4.390625 -13.566406 C 4.390625 -19.71875 9.285156 -24.792969 15.507812 -24.792969 Z M 15.507812 -24.792969 "/></g></g></g><g fill="#000000" fill-opacity="1"><g transform="translate(452.482649, 103.179866)"><g><path d="M 5.757812 -24.324219 L 6.65625 -24.324219 C 10.292969 -24.324219 13.566406 -23.894531 13.566406 -19.429688 C 13.566406 -15.222656 10.113281 -14.574219 6.691406 -14.574219 L 5.757812 -14.574219 Z M 5.757812 -11.910156 L 6.511719 -11.910156 L 14.71875 0 L 18.421875 0 L 9.789062 -12.164062 C 13.960938 -12.523438 16.589844 -15.472656 16.589844 -19.648438 C 16.589844 -25.765625 11.800781 -27.132812 6.65625 -27.132812 L 2.734375 -27.132812 L 2.734375 0 L 5.757812 0 Z M 5.757812 -11.910156 "/></g></g></g><g fill="#000000" fill-opacity="1"><g transform="translate(471.982951, 103.179866)"><g><path d="M 18.386719 -7.699219 L 21.589844 0 L 24.9375 0 L 12.738281 -28.425781 L 0.214844 0 L 3.527344 0 L 6.800781 -7.699219 Z M 17.199219 -10.507812 L 8.023438 -10.507812 L 12.667969 -21.375 Z M 17.199219 -10.507812 "/></g></g></g><g fill="#000000" fill-opacity="1"><g transform="translate(497.131862, 103.179866)"><g/></g></g><g fill="#000000" fill-opacity="1"><g transform="translate(508.213221, 103.179866)"><g><path d="M 2.734375 0 L 16.804688 0 L 16.804688 -2.808594 L 5.757812 -2.808594 L 5.757812 -13.457031 L 16.480469 -13.457031 L 16.480469 -16.265625 L 5.757812 -16.265625 L 5.757812 -24.324219 L 16.804688 -24.324219 L 16.804688 -27.132812 L 2.734375 -27.132812 Z M 2.734375 0 "/></g></g></g><g fill="#000000" fill-opacity="1"><g transform="translate(227.634223, 153.11962)"><g><path d="M 5.828125 -27.132812 L 2.808594 -27.132812 L 2.808594 0 L 5.828125 0 Z M 5.828125 -27.132812 "/></g></g></g><g fill="#000000" fill-opacity="1"><g transform="translate(236.233065, 153.11962)"><g><path d="M 2.914062 0 L 5.9375 0 L 5.9375 -20.90625 L 27.09375 1.222656 L 27.09375 -27.132812 L 24.074219 -27.132812 L 24.074219 -6.117188 L 2.914062 -28.28125 Z M 2.914062 0 "/></g></g></g><g fill="#000000" fill-opacity="1"><g transform="translate(266.239072, 153.11962)"><g><path d="M 23.425781 -24.9375 C 21.015625 -26.734375 18.351562 -27.597656 15.328125 -27.597656 C 7.554688 -27.597656 1.1875 -21.230469 1.1875 -13.457031 C 1.1875 -5.757812 7.664062 0.46875 15.328125 0.46875 C 18.207031 0.46875 21.085938 -0.503906 23.425781 -2.195312 L 23.425781 -5.9375 C 21.265625 -3.777344 18.28125 -2.339844 15.222656 -2.339844 C 9.140625 -2.339844 4.210938 -7.59375 4.210938 -13.566406 C 4.210938 -19.539062 9.105469 -24.792969 15.148438 -24.792969 C 18.28125 -24.792969 21.265625 -23.425781 23.425781 -21.195312 Z M 23.425781 -24.9375 "/></g></g></g><g fill="#000000" fill-opacity="1"><g transform="translate(292.035596, 153.11962)"><g><path d="M 15.507812 -27.597656 C 7.773438 -27.597656 1.367188 -21.300781 1.367188 -13.53125 C 1.367188 -5.722656 7.773438 0.46875 15.507812 0.46875 C 23.246094 0.46875 29.652344 -5.722656 29.652344 -13.53125 C 29.652344 -21.300781 23.246094 -27.597656 15.507812 -27.597656 Z M 15.507812 -24.792969 C 21.734375 -24.792969 26.628906 -19.71875 26.628906 -13.566406 C 26.628906 -7.449219 21.664062 -2.339844 15.507812 -2.339844 C 9.355469 -2.339844 4.390625 -7.449219 4.390625 -13.566406 C 4.390625 -19.71875 9.285156 -24.792969 15.507812 -24.792969 Z M 15.507812 -24.792969 "/></g></g></g><g fill="#000000" fill-opacity="1"><g transform="translate(323.048993, 153.11962)"><g><path d="M 5.757812 -24.324219 L 6.65625 -24.324219 C 10.292969 -24.324219 13.566406 -23.894531 13.566406 -19.429688 C 13.566406 -15.222656 10.113281 -14.574219 6.691406 -14.574219 L 5.757812 -14.574219 Z M 5.757812 -11.910156 L 6.511719 -11.910156 L 14.71875 0 L 18.421875 0 L 9.789062 -12.164062 C 13.960938 -12.523438 16.589844 -15.472656 16.589844 -19.648438 C 16.589844 -25.765625 11.800781 -27.132812 6.65625 -27.132812 L 2.734375 -27.132812 L 2.734375 0 L 5.757812 0 Z M 5.757812 -11.910156 "/></g></g></g><g fill="#000000" fill-opacity="1"><g transform="translate(342.549295, 153.11962)"><g><path d="M 5.757812 -11.875 L 7.953125 -11.875 C 10.21875 -11.875 12.558594 -12.164062 14.394531 -13.671875 C 16.085938 -15.078125 16.984375 -17.308594 16.984375 -19.503906 C 16.984375 -21.914062 15.941406 -24.289062 13.925781 -25.691406 C 11.945312 -27.058594 9.535156 -27.132812 7.195312 -27.132812 L 2.734375 -27.132812 L 2.734375 0 L 5.757812 0 Z M 5.757812 -24.324219 L 6.871094 -24.324219 C 10.398438 -24.324219 13.960938 -24 13.960938 -19.574219 C 13.960938 -15.6875 11.117188 -14.679688 7.773438 -14.679688 L 5.757812 -14.679688 Z M 5.757812 -24.324219 "/></g></g></g><g fill="#000000" fill-opacity="1"><g transform="translate(360.64645, 153.11962)"><g><path d="M 15.507812 -27.597656 C 7.773438 -27.597656 1.367188 -21.300781 1.367188 -13.53125 C 1.367188 -5.722656 7.773438 0.46875 15.507812 0.46875 C 23.246094 0.46875 29.652344 -5.722656 29.652344 -13.53125 C 29.652344 -21.300781 23.246094 -27.597656 15.507812 -27.597656 Z M 15.507812 -24.792969 C 21.734375 -24.792969 26.628906 -19.71875 26.628906 -13.566406 C 26.628906 -7.449219 21.664062 -2.339844 15.507812 -2.339844 C 9.355469 -2.339844 4.390625 -7.449219 4.390625 -13.566406 C 4.390625 -19.71875 9.285156 -24.792969 15.507812 -24.792969 Z M 15.507812 -24.792969 "/></g></g></g><g fill="#000000" fill-opacity="1"><g transform="translate(391.659847, 153.11962)"><g><path d="M 5.757812 -24.324219 L 6.65625 -24.324219 C 10.292969 -24.324219 13.566406 -23.894531 13.566406 -19.429688 C 13.566406 -15.222656 10.113281 -14.574219 6.691406 -14.574219 L 5.757812 -14.574219 Z M 5.757812 -11.910156 L 6.511719 -11.910156 L 14.71875 0 L 18.421875 0 L 9.789062 -12.164062 C 13.960938 -12.523438 16.589844 -15.472656 16.589844 -19.648438 C 16.589844 -25.765625 11.800781 -27.132812 6.65625 -27.132812 L 2.734375 -27.132812 L 2.734375 0 L 5.757812 0 Z M 5.757812 -11.910156 "/></g></g></g><g fill="#000000" fill-opacity="1"><g transform="translate(411.160149, 153.11962)"><g><path d="M 18.386719 -7.699219 L 21.589844 0 L 24.9375 0 L 12.738281 -28.425781 L 0.214844 0 L 3.527344 0 L 6.800781 -7.699219 Z M 17.199219 -10.507812 L 8.023438 -10.507812 L 12.667969 -21.375 Z M 17.199219 -10.507812 "/></g></g></g><g fill="#000000" fill-opacity="1"><g transform="translate(436.30906, 153.11962)"><g><path d="M 2.734375 0 L 7.773438 0 C 12.019531 0 15.257812 -0.539062 18.496094 -3.417969 C 21.480469 -6.082031 22.921875 -9.570312 22.921875 -13.53125 C 22.921875 -17.558594 21.519531 -21.195312 18.421875 -23.855469 C 15.222656 -26.59375 11.910156 -27.132812 7.84375 -27.132812 L 2.734375 -27.132812 Z M 5.757812 -2.808594 L 5.757812 -24.324219 L 7.953125 -24.324219 C 11.15625 -24.324219 13.890625 -23.894531 16.371094 -21.699219 C 18.710938 -19.648438 19.898438 -16.660156 19.898438 -13.566406 C 19.898438 -10.542969 18.746094 -7.699219 16.515625 -5.613281 C 14.035156 -3.273438 11.261719 -2.808594 7.953125 -2.808594 Z M 5.757812 -2.808594 "/></g></g></g><g fill="#000000" fill-opacity="1"><g transform="translate(460.702438, 153.11962)"><g><path d="M 15.507812 -27.597656 C 7.773438 -27.597656 1.367188 -21.300781 1.367188 -13.53125 C 1.367188 -5.722656 7.773438 0.46875 15.507812 0.46875 C 23.246094 0.46875 29.652344 -5.722656 29.652344 -13.53125 C 29.652344 -21.300781 23.246094 -27.597656 15.507812 -27.597656 Z M 15.507812 -24.792969 C 21.734375 -24.792969 26.628906 -19.71875 26.628906 -13.566406 C 26.628906 -7.449219 21.664062 -2.339844 15.507812 -2.339844 C 9.355469 -2.339844 4.390625 -7.449219 4.390625 -13.566406 C 4.390625 -19.71875 9.285156 -24.792969 15.507812 -24.792969 Z M 15.507812 -24.792969 "/></g></g></g><g fill="#000000" fill-opacity="1"><g transform="translate(491.715835, 153.11962)"><g><path d="M 5.757812 -24.324219 L 6.65625 -24.324219 C 10.292969 -24.324219 13.566406 -23.894531 13.566406 -19.429688 C 13.566406 -15.222656 10.113281 -14.574219 6.691406 -14.574219 L 5.757812 -14.574219 Z M 5.757812 -11.910156 L 6.511719 -11.910156 L 14.71875 0 L 18.421875 0 L 9.789062 -12.164062 C 13.960938 -12.523438 16.589844 -15.472656 16.589844 -19.648438 C 16.589844 -25.765625 11.800781 -27.132812 6.65625 -27.132812 L 2.734375 -27.132812 L 2.734375 0 L 5.757812 0 Z M 5.757812 -11.910156 "/></g></g></g><g fill="#000000" fill-opacity="1"><g transform="translate(511.216137, 153.11962)"><g><path d="M 18.386719 -7.699219 L 21.589844 0 L 24.9375 0 L 12.738281 -28.425781 L 0.214844 0 L 3.527344 0 L 6.800781 -7.699219 Z M 17.199219 -10.507812 L 8.023438 -10.507812 L 12.667969 -21.375 Z M 17.199219 -10.507812 "/></g></g></g></g></g></svg>